<?xml version="1.0" encoding="utf-8"?>
<!-- Generator: Adobe Illustrator 21.1.0, SVG Export Plug-In . SVG Version: 6.00 Build 0)  -->
<svg version="1.1" id="MKTG_ICN_1" xmlns="http://www.w3.org/2000/svg" xmlns:xlink="http://www.w3.org/1999/xlink" x="0px" y="0px"
	 viewBox="0 0 1024 1024" style="enable-background:new 0 0 1024 1024;" xml:space="preserve">
<style type="text/css">
	.st0{fill:none;stroke:#65A637;stroke-width:25;stroke-linecap:round;stroke-linejoin:round;}
</style>
<title>Applications Management</title>
<polyline class="st0" points="873.7,710.6 788,739.8 763,664.7 "/>
<circle class="st0" cx="512" cy="512" r="496.5"/>
<path class="st0" d="M729.8,795.5c-62.2,47.4-138.2,73.1-216.4,72.9C316,868.4,156,708.4,156,511c-0.1-79.5,26.4-156.8,75.3-219.4"
	/>
<path class="st0" d="M290.4,231.6c63.3-50.6,141.9-78.2,223-78.1c197.4,0,357.5,160,357.5,357.5c0.1,83.7-29.2,164.7-82.9,228.8"/>
<polyline class="st0" points="145.6,320.8 231.2,291.5 256.3,366.7 "/>
<path class="st0" d="M356.9,422.3c-1.4-0.9-3.2-0.9-4.6,0l-43.4,25.1c-1.5,0.8-2.3,2.5-2,4.1l7.2,48.1c0.2,1.1-0.1,2.1-0.7,3
	c-4.7,6.4-8.7,13.3-11.9,20.5c-0.4,1-1.2,1.7-2.2,2.1L254.1,543c-1.6,0.6-2.6,2.1-2.6,3.8V597c0,1.7,1,3.2,2.6,3.8l44.4,17.4
	c1,0.4,1.7,1.1,2.2,2.1c3.4,7.7,7.6,14.9,12.5,21.7c0.6,0.9,0.9,1.9,0.7,3l-7.2,47.1c-0.3,1.7,0.5,3.3,2,4.1l43.4,25.1
	c1.4,0.9,3.2,0.9,4.6,0l36.9-29.5c0.8-0.7,1.9-1,3-0.9c4.3,0.5,8.6,0.8,12.9,0.8c4.3,0,8.7-0.2,13-0.7c1.1-0.1,2.2,0.2,3,0.9
	l36.9,29.5c1.4,0.9,3.2,0.9,4.6,0l43.4-25.1c1.5-0.8,2.3-2.5,2-4.1l-7.4-47.1c-0.2-1.1,0.1-2.1,0.7-3c4.9-6.8,9.1-14.1,12.5-21.7
	c0.4-1,1.2-1.7,2.2-2.1l44.4-17.4c1.6-0.6,2.6-2.1,2.6-3.8v-50.8c0-1.7-1-3.2-2.6-3.8l-45.2-17.7c-1-0.4-1.7-1.1-2.2-2.1
	c-3.3-7.2-7.3-14-11.9-20.4c-0.6-0.9-0.9-1.9-0.7-3l7.2-48.3c0.3-1.7-0.5-3.3-2-4.1l-43.4-25.1c-1.4-0.9-3.2-0.9-4.6,0l-38.4,30.7
	c-0.8,0.7-1.9,1-2.9,0.9c-3.8-0.4-7.6-0.6-11.4-0.6c-3.8-0.1-7.7,0.1-11.5,0.6c-1,0.1-2.1-0.2-2.9-0.9L356.9,422.3z M448.5,532.6
	c22,22,21.4,58-1.6,79.3c-20.9,19.4-53.8,19.3-74.7-0.1c-23-21.4-23.5-57.3-1.4-79.3C392.2,511.1,426.9,511.1,448.5,532.6
	L448.5,532.6L448.5,532.6z"/>
<path class="st0" d="M677,317.2c-0.4-1-1.4-1.7-2.5-1.7l-33.1,0.5c-1.1,0-2.1,0.7-2.5,1.7l-11.2,30.1c-0.2,0.6-0.7,1.2-1.3,1.5
	c-4.7,2.2-9.3,4.9-13.5,8c-0.5,0.4-1.2,0.6-1.9,0.5l-32-4.3c-1.1-0.1-2.1,0.4-2.7,1.3l-16.1,29c-0.6,0.9-0.6,2.1,0,3l20.5,24.5
	c0.4,0.5,0.6,1.2,0.6,1.9c-0.6,5.5-0.6,11.1,0,16.6c0.1,0.7-0.1,1.4-0.5,1.9l-19.2,24.8c-0.6,0.9-0.6,2.1,0,3l17,28.3
	c0.6,1,1.7,1.5,2.7,1.3l30.9-5.2c0.7-0.1,1.4,0,2,0.5c2.3,1.7,4.7,3.2,7.2,4.6c2.5,1.4,5,2.6,7.7,3.7c0.6,0.3,1.1,0.8,1.4,1.4
	l11.8,28.8c0.4,1,1.4,1.7,2.5,1.7l33.1-0.5c1.1,0,2.1-0.7,2.5-1.7l11-29.4c0.2-0.6,0.7-1.2,1.3-1.5c5-2.4,9.8-5.3,14.3-8.7
	c0.5-0.4,1.2-0.6,1.9-0.5l31.1,4.2c1.1,0.1,2.1-0.4,2.7-1.3l16.1-29.2c0.6-0.9,0.6-2.1,0-3l-20.4-24.7c-0.4-0.5-0.6-1.2-0.6-1.9
	c0.4-5.2,0.3-10.4-0.3-15.6c-0.1-0.7,0.1-1.4,0.5-1.9l19.7-25.5c0.6-0.9,0.6-2.1,0-3l-17-28.4c-0.6-1-1.7-1.5-2.7-1.3l-32,5.4
	c-0.7,0.1-1.4,0-2-0.5c-2.1-1.4-4.2-2.8-6.4-4c-2.2-1.2-4.5-2.4-6.8-3.4c-0.6-0.3-1.1-0.8-1.4-1.4L677,317.2z M663.4,413
	c4,2.3,5.5,7.4,3.2,11.4s-7.4,5.5-11.4,3.2c-4-2.3-5.5-7.3-3.2-11.4C654.2,412.2,659.4,410.7,663.4,413
	C663.4,412.9,663.4,412.9,663.4,413L663.4,413L663.4,413z"/>
</svg>
