<svg id="MKTG_ICN_1" data-name="MKTG ICN 1" xmlns="http://www.w3.org/2000/svg" viewBox="0 0 1024 1024"><defs><style>.cls-1{fill:none;stroke:#65a637;stroke-miterlimit:10;stroke-width:25px;}.cls-2{fill:#65a637;}</style></defs><title>Any Machine Data</title><circle class="cls-1" cx="512" cy="512" r="496.5"/><path class="cls-2" d="M367.79,279.59a194.27,194.27,0,0,1-2.27,31.95,74.4,74.4,0,0,1-8.38,24.24A55.68,55.68,0,0,1,337.2,356.4a54.15,54.15,0,0,1-58.06-2.49q-13.65-9.74-20.56-27a100.12,100.12,0,0,1-5.15-20.79,172.81,172.81,0,0,1-1.64-24.64,236.6,236.6,0,0,1,1.81-30.81,101.68,101.68,0,0,1,5.66-23.56q6.68-16.31,19.43-24.87t30.42-8.55a56.74,56.74,0,0,1,21.18,3.79A48.35,48.35,0,0,1,347,208.62a63.52,63.52,0,0,1,12.18,18.07Q367.79,245.38,367.79,279.59Zm-31-2.27q0-20.73-2.49-33.93t-8.38-19.94q-5.89-6.74-16.31-6.74-15,0-20.79,15.07t-5.83,46.45q0,21.3,2.49,34.89t8.38,20.56q5.89,7,16,7,10.42,0,16.31-7.25t8.27-20.73Q336.75,299.19,336.75,277.33Z"/><path class="cls-2" d="M505.65,279.59a194.27,194.27,0,0,1-2.27,31.95A74.4,74.4,0,0,1,495,335.78a55.68,55.68,0,0,1-19.94,20.62A54.15,54.15,0,0,1,417,353.9q-13.65-9.74-20.56-27a100.12,100.12,0,0,1-5.15-20.79,172.81,172.81,0,0,1-1.64-24.64,236.6,236.6,0,0,1,1.81-30.81,101.68,101.68,0,0,1,5.66-23.56q6.68-16.31,19.43-24.87T447,193.72a56.74,56.74,0,0,1,21.18,3.79,48.35,48.35,0,0,1,16.71,11.1A63.52,63.52,0,0,1,497,226.69Q505.65,245.38,505.65,279.59Zm-31-2.27q0-20.73-2.49-33.93t-8.38-19.94q-5.89-6.74-16.31-6.74-15,0-20.79,15.07t-5.83,46.45q0,21.3,2.49,34.89t8.38,20.56q5.89,7,16,7,10.42,0,16.31-7.25t8.27-20.73Q474.61,299.19,474.61,277.33Z"/><path class="cls-2" d="M582.12,345.52V242.43q-28.78,22.09-38.74,22.09a11.44,11.44,0,0,1-8.44-3.79,12.23,12.23,0,0,1-3.68-8.78q0-5.78,3.63-8.5t12.8-7q13.71-6.46,21.92-13.59a92.84,92.84,0,0,0,14.56-16Q590.5,198,592.42,196t7.25-2a11.61,11.61,0,0,1,9.63,4.64q3.62,4.65,3.63,12.8V341.1q0,22.77-15.52,22.77a14.23,14.23,0,0,1-11.1-4.64Q582.11,354.58,582.12,345.52Z"/><path class="cls-2" d="M781.38,279.59a194.27,194.27,0,0,1-2.27,31.95,74.4,74.4,0,0,1-8.38,24.24,55.68,55.68,0,0,1-19.94,20.62,54.15,54.15,0,0,1-58.06-2.49q-13.65-9.74-20.56-27A100.12,100.12,0,0,1,667,306.16a172.81,172.81,0,0,1-1.64-24.64,236.6,236.6,0,0,1,1.81-30.81,101.68,101.68,0,0,1,5.66-23.56q6.68-16.31,19.43-24.87t30.42-8.55a56.74,56.74,0,0,1,21.18,3.79,48.35,48.35,0,0,1,16.71,11.1,63.52,63.52,0,0,1,12.18,18.07Q781.38,245.38,781.38,279.59Zm-31-2.27q0-20.73-2.49-33.93t-8.38-19.94q-5.89-6.74-16.31-6.74-15,0-20.79,15.07t-5.83,46.45q0,21.3,2.49,34.89t8.38,20.56q5.89,7,16,7,10.42,0,16.31-7.25T748,312.67Q750.34,299.19,750.34,277.33Z"/><path class="cls-2" d="M298.86,515.88a194.27,194.27,0,0,1-2.27,31.95,74.4,74.4,0,0,1-8.38,24.24,55.68,55.68,0,0,1-19.94,20.62,54.15,54.15,0,0,1-58.06-2.49q-13.65-9.74-20.56-27a100.12,100.12,0,0,1-5.15-20.79,172.81,172.81,0,0,1-1.64-24.64A236.6,236.6,0,0,1,184.67,487a101.68,101.68,0,0,1,5.66-23.56q6.68-16.31,19.43-24.87T240.18,430a56.74,56.74,0,0,1,21.18,3.79,48.35,48.35,0,0,1,16.71,11.1A63.52,63.52,0,0,1,290.25,463Q298.85,481.67,298.86,515.88Zm-31-2.27q0-20.73-2.49-33.93t-8.38-19.94Q251.05,453,240.63,453q-15,0-20.79,15.07T214,514.52q0,21.3,2.49,34.89T224.88,570q5.89,7,16,7,10.42,0,16.31-7.25T265.44,549Q267.82,535.48,267.82,513.62Z"/><path class="cls-2" d="M375.32,581.81V478.72q-28.78,22.09-38.74,22.09a11.44,11.44,0,0,1-8.44-3.79,12.23,12.23,0,0,1-3.68-8.78q0-5.78,3.63-8.5t12.8-7q13.71-6.46,21.92-13.59a92.84,92.84,0,0,0,14.56-16q6.34-8.84,8.27-10.87t7.25-2a11.61,11.61,0,0,1,9.63,4.64q3.62,4.65,3.63,12.8V577.39q0,22.77-15.52,22.77a14.23,14.23,0,0,1-11.1-4.64Q375.32,590.87,375.32,581.81Z"/><path class="cls-2" d="M574.58,515.88a194.27,194.27,0,0,1-2.27,31.95,74.4,74.4,0,0,1-8.38,24.24A55.68,55.68,0,0,1,544,592.69a54.15,54.15,0,0,1-58.06-2.49q-13.65-9.74-20.56-27a100.12,100.12,0,0,1-5.15-20.79,172.81,172.81,0,0,1-1.64-24.64A236.6,236.6,0,0,1,460.4,487a101.68,101.68,0,0,1,5.66-23.56q6.68-16.31,19.43-24.87T515.9,430a56.74,56.74,0,0,1,21.18,3.79,48.35,48.35,0,0,1,16.71,11.1A63.52,63.52,0,0,1,566,463Q574.58,481.67,574.58,515.88Zm-31-2.27q0-20.73-2.49-33.93t-8.38-19.94Q526.78,453,516.36,453q-15,0-20.79,15.07t-5.83,46.45q0,21.3,2.49,34.89T500.61,570q5.89,7,16,7,10.42,0,16.31-7.25T541.17,549Q543.54,535.48,543.54,513.62Z"/><path class="cls-2" d="M651,581.81V478.72q-28.78,22.09-38.74,22.09a11.44,11.44,0,0,1-8.44-3.79,12.23,12.23,0,0,1-3.68-8.78q0-5.78,3.63-8.5t12.8-7q13.71-6.46,21.92-13.59a92.84,92.84,0,0,0,14.56-16q6.34-8.84,8.27-10.87t7.25-2a11.61,11.61,0,0,1,9.63,4.64q3.62,4.65,3.63,12.8V577.39q0,22.77-15.52,22.77a14.23,14.23,0,0,1-11.1-4.64Q651,590.87,651,581.81Z"/><path class="cls-2" d="M850.31,515.88A194.27,194.27,0,0,1,848,547.83a74.4,74.4,0,0,1-8.38,24.24,55.68,55.68,0,0,1-19.94,20.62,54.15,54.15,0,0,1-58.06-2.49q-13.65-9.74-20.56-27A100.12,100.12,0,0,1,736,542.45a172.81,172.81,0,0,1-1.64-24.64A236.6,236.6,0,0,1,736.12,487a101.68,101.68,0,0,1,5.66-23.56q6.68-16.31,19.43-24.87T791.63,430a56.74,56.74,0,0,1,21.18,3.79,48.35,48.35,0,0,1,16.71,11.1A63.52,63.52,0,0,1,841.7,463Q850.31,481.67,850.31,515.88Zm-31-2.27q0-20.73-2.49-33.93t-8.38-19.94Q802.5,453,792.08,453q-15,0-20.79,15.07t-5.83,46.45q0,21.3,2.49,34.89T776.34,570q5.89,7,16,7,10.42,0,16.31-7.25T816.89,549Q819.27,535.48,819.27,513.62Z"/><path class="cls-2" d="M367.79,744.81a194.27,194.27,0,0,1-2.27,31.95A74.4,74.4,0,0,1,357.14,801a55.68,55.68,0,0,1-19.94,20.62,54.15,54.15,0,0,1-58.06-2.49q-13.65-9.74-20.56-27a100.12,100.12,0,0,1-5.15-20.79,172.81,172.81,0,0,1-1.64-24.64,236.6,236.6,0,0,1,1.81-30.81,101.68,101.68,0,0,1,5.66-23.56q6.68-16.31,19.43-24.87t30.42-8.55a56.74,56.74,0,0,1,21.18,3.79A48.35,48.35,0,0,1,347,673.84a63.52,63.52,0,0,1,12.18,18.07Q367.79,710.6,367.79,744.81Zm-31-2.27q0-20.73-2.49-33.93t-8.38-19.94q-5.89-6.74-16.31-6.74-15,0-20.79,15.07t-5.83,46.45q0,21.3,2.49,34.89t8.38,20.56q5.89,7,16,7,10.42,0,16.31-7.25t8.27-20.73Q336.75,764.41,336.75,742.54Z"/><path class="cls-2" d="M444.25,810.74V707.65q-28.78,22.09-38.74,22.09a11.44,11.44,0,0,1-8.44-3.79,12.23,12.23,0,0,1-3.68-8.78q0-5.78,3.63-8.5t12.8-7q13.71-6.46,21.92-13.59a92.84,92.84,0,0,0,14.56-16q6.34-8.84,8.27-10.87t7.25-2a11.61,11.61,0,0,1,9.63,4.64q3.62,4.65,3.63,12.8V806.32q0,22.77-15.52,22.77a14.23,14.23,0,0,1-11.1-4.64Q444.25,819.8,444.25,810.74Z"/><path class="cls-2" d="M643.51,744.81a194.27,194.27,0,0,1-2.27,31.95A74.4,74.4,0,0,1,632.87,801a55.68,55.68,0,0,1-19.94,20.62,54.15,54.15,0,0,1-58.06-2.49q-13.65-9.74-20.56-27a100.12,100.12,0,0,1-5.15-20.79,172.81,172.81,0,0,1-1.64-24.64,236.6,236.6,0,0,1,1.81-30.81A101.68,101.68,0,0,1,535,692.36q6.68-16.31,19.43-24.87t30.42-8.55A56.74,56.74,0,0,1,606,662.74a48.35,48.35,0,0,1,16.71,11.1,63.52,63.52,0,0,1,12.18,18.07Q643.51,710.6,643.51,744.81Zm-31-2.27q0-20.73-2.49-33.93t-8.38-19.94q-5.89-6.74-16.31-6.74-15,0-20.79,15.07t-5.83,46.45q0,21.3,2.49,34.89t8.38,20.56q5.89,7,16,7,10.42,0,16.31-7.25t8.27-20.73Q612.47,764.41,612.47,742.54Z"/><path class="cls-2" d="M720,810.74V707.65q-28.78,22.09-38.74,22.09a11.44,11.44,0,0,1-8.44-3.79,12.23,12.23,0,0,1-3.68-8.78q0-5.78,3.63-8.5t12.8-7q13.71-6.46,21.92-13.59a92.84,92.84,0,0,0,14.56-16q6.34-8.84,8.27-10.87t7.25-2a11.61,11.61,0,0,1,9.63,4.64q3.62,4.65,3.63,12.8V806.32q0,22.77-15.52,22.77a14.23,14.23,0,0,1-11.1-4.64Q720,819.8,720,810.74Z"/></svg>